PathFileType	4	(X/Y/Z)	c:/Users/goper/Files/vsCode/490R/osim_files/C17/C17_Slow_06.trc
DataRate	CameraRate	NumFrames	NumMarkers	Units                	OrigDataRate	OrigDataStartFrame	OrigNumFrames
250.00	250.00	9	36	mm	250.0	1058	2821
                Frame#	Time	LPSIS			LASIS			LTH1			LTH2			LTH3			LTH4			LLFE			LMFE			LSH1			LSH2			LSH3			LSH4			LLMAL			LMMAL			LCAL			LMTP5			LTOE			LMTP1			RPSIS			RASIS			RTH1			RTH2			RTH3			RTH4			RLFE			RMFE			RSH1			RSH2			RSH3			RSH4			RLMAL			RMMAL			RCAL			RMTP1			RTOE			RMTP5		
		X1	Y1	Z1	X2	Y2	Z2	X3	Y3	Z3	X4	Y4	Z4	X5	Y5	Z5	X6	Y6	Z6	X7	Y7	Z7	X8	Y8	Z8	X9	Y9	Z9	X10	Y10	Z10	X11	Y11	Z11	X12	Y12	Z12	X13	Y13	Z13	X14	Y14	Z14	X15	Y15	Z15	X16	Y16	Z16	X17	Y17	Z17	X18	Y18	Z18	X19	Y19	Z19	X20	Y20	Z20	X21	Y21	Z21	X22	Y22	Z22	X23	Y23	Z23	X24	Y24	Z24	X25	Y25	Z25	X26	Y26	Z26	X27	Y27	Z27	X28	Y28	Z28	X29	Y29	Z29	X30	Y30	Z30	X31	Y31	Z31	X32	Y32	Z32	X33	Y33	Z33	X34	Y34	Z34	X35	Y35	Z35	X36	Y36	Z36

1058	4.22800	1903.02771	1033.63098	339.30063	0.00000	0.00000	0.00000	1868.19629	684.58551	472.73215	1867.76672	639.96375	467.09558	1809.46924	681.43207	481.79852	0.00000	0.00000	0.00000	1908.30579	476.76685	448.74338	0.00000	0.00000	0.00000	0.00000	0.00000	0.00000	1618.97205	752.14655	137.94221	0.00000	0.00000	0.00000	1604.17432	707.12750	141.45079	0.00000	0.00000	0.00000	0.00000	0.00000	0.00000	1685.11157	524.76068	364.09418	0.00000	0.00000	0.00000	1538.53442	499.00500	166.08997	0.00000	0.00000	0.00000	1896.43347	1028.14746	263.93188	0.00000	0.00000	0.00000	0.00000	0.00000	0.00000	0.00000	0.00000	0.00000	2105.11108	338.10037	446.08990	0.00000	0.00000	0.00000	1512.06555	158.20657	308.45200	0.00000	0.00000	0.00000	0.00000	0.00000	0.00000	0.00000	0.00000	0.00000	1572.60852	262.58841	184.61009	0.00000	0.00000	0.00000	1523.64368	85.97677	222.37709	1492.64209	105.95132	308.39578	1584.30103	43.09739	273.74390	0.00000	0.00000	0.00000	1338.22961	88.20457	258.90952	1390.51538	42.46769	199.35072
1059	4.23200	1897.19507	1033.93286	339.52359	0.00000	0.00000	0.00000	1860.49927	682.56067	473.04254	1859.39758	638.55408	467.30338	1801.42615	680.50824	481.91684	0.00000	0.00000	0.00000	1898.62048	475.47348	449.52496	0.00000	0.00000	0.00000	0.00000	0.00000	0.00000	1612.59973	753.40643	137.67195	0.00000	0.00000	0.00000	0.00000	0.00000	0.00000	0.00000	0.00000	0.00000	1677.56787	524.69684	365.26587	0.00000	0.00000	0.00000	2097.05566	339.78278	446.46188	0.00000	0.00000	0.00000	0.00000	0.00000	0.00000	1890.57837	1028.79736	264.28949	0.00000	0.00000	0.00000	0.00000	0.00000	0.00000	2124.51147	306.40201	441.21832	0.00000	0.00000	0.00000	0.00000	0.00000	0.00000	0.00000	0.00000	0.00000	1533.01929	499.16254	165.24991	0.00000	0.00000	0.00000	0.00000	0.00000	0.00000	1569.30908	262.25507	183.35243	0.00000	0.00000	0.00000	1522.54578	85.72723	222.00273	1491.46106	105.78658	307.95218	1583.90906	42.61071	272.90680	0.00000	0.00000	0.00000	1337.23157	86.28637	258.87671	1389.70081	40.62212	199.43501
1060	4.23600	1891.34741	1034.22424	339.78662	1698.61694	980.25134	449.21347	1852.20300	681.82318	472.86053	1850.83057	637.09265	467.59293	1793.37793	679.73639	482.11359	0.00000	0.00000	0.00000	1888.77637	474.34241	450.24866	0.00000	0.00000	0.00000	0.00000	0.00000	0.00000	1606.41382	754.55487	137.13701	0.00000	0.00000	0.00000	0.00000	0.00000	0.00000	0.00000	0.00000	0.00000	0.00000	0.00000	0.00000	1654.18579	758.04364	77.05312	0.00000	0.00000	0.00000	2088.86719	341.61121	447.01321	0.00000	0.00000	0.00000	1884.80151	1029.50427	264.62537	0.00000	0.00000	0.00000	0.00000	0.00000	0.00000	0.00000	0.00000	0.00000	2116.67212	308.48267	441.73703	0.00000	0.00000	0.00000	1527.68457	499.15262	164.45264	0.00000	0.00000	0.00000	1560.65442	284.68268	164.00394	1547.48792	242.88594	178.30266	0.00000	0.00000	0.00000	0.00000	0.00000	0.00000	1519.70923	83.14053	220.51593	1490.52722	105.73125	307.67444	1583.51233	43.08175	272.79691	0.00000	0.00000	0.00000	1336.01025	84.16550	258.86795	1389.06018	39.19817	199.53285
1061	4.24000	1885.56494	1034.51965	340.04547	0.00000	0.00000	0.00000	1844.24292	679.83521	473.27496	1842.28137	635.65265	467.88254	1785.08203	678.84644	482.24194	0.00000	0.00000	0.00000	1878.71887	473.14856	450.93411	0.00000	0.00000	0.00000	0.00000	0.00000	0.00000	1600.33752	755.42859	136.55170	0.00000	0.00000	0.00000	0.00000	0.00000	0.00000	0.00000	0.00000	0.00000	1648.00708	758.78308	76.45528	0.00000	0.00000	0.00000	1663.15869	524.66559	367.94214	0.00000	0.00000	0.00000	0.00000	0.00000	0.00000	1879.13464	1030.18262	265.02087	0.00000	0.00000	0.00000	0.00000	0.00000	0.00000	2080.58838	343.54221	447.65518	0.00000	0.00000	0.00000	0.00000	0.00000	0.00000	0.00000	0.00000	0.00000	1522.66125	498.95898	163.66794	1557.39075	284.67792	162.80901	1544.65930	242.79787	177.25601	0.00000	0.00000	0.00000	0.00000	0.00000	0.00000	1519.14575	83.11025	220.38766	1489.64062	105.67782	307.51175	1583.20496	43.40129	272.75812	1348.50818	56.83428	305.80481	1335.20264	82.20616	259.19058	1388.57190	38.03479	199.54019
1062	4.24400	1879.78821	1034.83740	340.31375	0.00000	0.00000	0.00000	1835.95422	678.46686	473.37228	1833.48486	634.08459	468.26498	1776.82300	678.10590	482.42551	0.00000	0.00000	0.00000	1868.47864	471.94946	451.57336	0.00000	0.00000	0.00000	0.00000	0.00000	0.00000	1593.42249	754.44006	137.85783	0.00000	0.00000	0.00000	0.00000	0.00000	0.00000	0.00000	0.00000	0.00000	0.00000	0.00000	0.00000	1642.02087	759.29810	75.75848	0.00000	0.00000	0.00000	1656.28357	524.74103	369.41324	0.00000	0.00000	0.00000	1873.57629	1030.89258	265.37845	0.00000	0.00000	0.00000	0.00000	0.00000	0.00000	0.00000	0.00000	0.00000	2072.70996	345.73581	448.71942	0.00000	0.00000	0.00000	1517.98364	498.71469	162.75011	0.00000	0.00000	0.00000	1554.19946	284.72525	161.78192	1541.97485	242.83307	176.34462	0.00000	0.00000	0.00000	0.00000	0.00000	0.00000	1518.39685	83.03233	220.46832	1488.87488	105.57321	307.47272	1582.92847	43.69262	272.77783	1348.42944	55.85597	306.89743	1334.18884	80.14487	259.54987	1387.43225	36.06698	200.04727
1063	4.24800	1874.06177	1035.17273	340.56842	0.00000	0.00000	0.00000	1827.57886	677.08118	473.47974	1824.62354	632.51501	468.67474	1768.43201	677.22992	482.54306	0.00000	0.00000	0.00000	1860.21277	472.97406	452.63159	0.00000	0.00000	0.00000	0.00000	0.00000	0.00000	1588.67285	756.71179	134.50183	0.00000	0.00000	0.00000	1569.07800	707.64343	142.65222	0.00000	0.00000	0.00000	2064.46777	347.98105	449.70734	0.00000	0.00000	0.00000	2092.36670	314.99194	443.81964	0.00000	0.00000	0.00000	0.00000	0.00000	0.00000	1868.05530	1031.59229	265.70566	0.00000	0.00000	0.00000	0.00000	0.00000	0.00000	2170.99585	206.08310	337.64145	0.00000	0.00000	0.00000	0.00000	0.00000	0.00000	0.00000	0.00000	0.00000	1553.59070	510.40088	287.65186	1551.22620	284.80783	160.94630	1539.36755	242.78972	175.60858	0.00000	0.00000	0.00000	0.00000	0.00000	0.00000	1517.88782	83.10876	220.51334	1488.11121	105.38943	307.54587	1582.68164	43.97121	272.79346	1345.69690	55.20176	307.02451	1333.51770	78.79261	259.97681	1387.57153	36.51685	199.51506
1064	4.25200	1868.43384	1035.54724	340.76285	0.00000	0.00000	0.00000	1819.19470	675.67914	473.54910	1815.77136	630.98785	469.03259	1759.99280	676.42755	482.68027	0.00000	0.00000	0.00000	1849.71521	471.87784	453.18909	0.00000	0.00000	0.00000	0.00000	0.00000	0.00000	1582.31897	755.38574	135.48062	0.00000	0.00000	0.00000	1568.34253	711.99365	136.44585	0.00000	0.00000	0.00000	0.00000	0.00000	0.00000	1635.82312	577.23529	291.33548	0.00000	0.00000	0.00000	2055.66675	350.08746	450.45343	0.00000	0.00000	0.00000	1862.59131	1032.23767	265.98004	0.00000	0.00000	0.00000	0.00000	0.00000	0.00000	0.00000	0.00000	0.00000	2083.85083	317.40390	444.63477	0.00000	0.00000	0.00000	1517.71411	419.00235	267.29431	0.00000	0.00000	0.00000	1548.40613	284.75620	160.29117	0.00000	0.00000	0.00000	0.00000	0.00000	0.00000	0.00000	0.00000	0.00000	1517.47339	83.15805	220.70454	1487.25244	105.09566	307.48505	1582.47656	44.16151	272.78735	1347.19983	52.62978	306.64847	1333.15015	77.93710	260.23764	1387.22815	36.05304	199.54526
1065	4.25600	1862.81067	1035.93542	340.91605	0.00000	0.00000	0.00000	1810.74365	674.12250	473.70074	1806.82251	629.43628	469.41806	1751.51831	675.59747	482.81226	0.00000	0.00000	0.00000	1836.78479	468.51730	453.19351	0.00000	0.00000	0.00000	0.00000	0.00000	0.00000	1577.95654	757.16205	132.14600	0.00000	0.00000	0.00000	1563.29553	711.88831	135.39040	0.00000	0.00000	0.00000	1387.34863	402.12378	278.55414	0.00000	0.00000	0.00000	2046.49023	352.09308	451.05255	0.00000	0.00000	0.00000	0.00000	0.00000	0.00000	1857.23425	1032.89099	266.21829	0.00000	0.00000	0.00000	0.00000	0.00000	0.00000	2074.98413	319.76410	445.37039	0.00000	0.00000	0.00000	0.00000	0.00000	0.00000	0.00000	0.00000	0.00000	1511.85010	419.11490	268.90536	1545.74646	284.55276	159.71530	1534.62646	242.54120	174.75475	0.00000	0.00000	0.00000	0.00000	0.00000	0.00000	1517.10522	83.17144	220.93347	1486.84094	104.90374	307.59875	1582.36658	44.29138	272.83295	1347.31897	52.62928	307.61017	1332.71643	76.95943	260.79929	1386.33582	34.68696	200.15601
1066	4.26000	1857.25659	1036.30115	341.03238	0.00000	0.00000	0.00000	1802.30627	672.59186	473.85571	1797.84485	627.86255	469.78421	1743.02185	674.75934	482.90222	1742.37280	625.04767	474.99863	1825.98303	467.41449	453.71451	0.00000	0.00000	0.00000	0.00000	0.00000	0.00000	1573.04919	757.08038	130.99751	0.00000	0.00000	0.00000	1558.58875	711.69373	134.35847	0.00000	0.00000	0.00000	0.00000	0.00000	0.00000	2233.38403	254.87177	383.29758	0.00000	0.00000	0.00000	1626.60254	728.58899	120.48929	0.00000	0.00000	0.00000	1851.90515	1033.45947	266.39325	0.00000	0.00000	0.00000	0.00000	0.00000	0.00000	0.00000	0.00000	0.00000	1531.15735	531.74640	330.72485	0.00000	0.00000	0.00000	1383.45667	401.97205	277.62668	0.00000	0.00000	0.00000	1543.34619	284.40366	159.30582	1532.54114	242.35957	174.60333	0.00000	0.00000	0.00000	0.00000	0.00000	0.00000	1516.80664	83.16395	221.06317	1486.92456	104.90472	307.91690	1582.22852	44.35558	272.85449	1347.37256	52.09353	307.95380	1332.42737	76.04723	261.41931	1386.02917	34.47369	200.25816
